<?xml version="1.0" standalone="no"?>
<!DOCTYPE svg PUBLIC "-//W3C//DTD SVG 20010904//EN"
 "http://www.w3.org/TR/2001/REC-SVG-20010904/DTD/svg10.dtd">
<svg version="1.0" xmlns="http://www.w3.org/2000/svg"
 width="457.000000pt" height="457.000000pt" viewBox="0 0 457.000000 457.000000"
 preserveAspectRatio="xMidYMid meet">
<metadata>
Created by potrace 1.11, written by Peter Selinger 2001-2013
</metadata>
<g transform="translate(0.000000,457.000000) scale(0.100000,-0.100000)"
fill="#000000" stroke="none">
<path d="M270 2655 l0 -1915 131 0 c84 0 128 -4 124 -10 -4 -6 11 -10 38 -10
31 0 49 6 62 20 13 15 21 17 31 9 14 -11 8 -39 -8 -39 -5 0 -7 10 -3 23 4 17
2 16 -10 -6 -22 -39 -13 -57 29 -57 19 0 37 -6 40 -12 3 -7 3 -2 0 10 -6 23
-5 23 19 8 22 -15 27 -15 60 -1 36 15 37 15 37 -5 0 -12 5 -18 10 -15 6 3 7
18 4 33 -5 22 -4 25 6 15 11 -10 10 -25 -4 -80 -9 -37 -21 -86 -27 -108 -5
-22 -19 -69 -29 -105 -16 -52 -59 -230 -95 -387 l-5 -23 143 0 143 0 18 197
c10 109 20 202 23 206 2 4 23 -14 46 -40 62 -70 107 -111 128 -116 29 -8 34
12 6 22 -26 10 -77 69 -77 89 0 6 -4 12 -8 14 -4 2 -21 30 -37 63 -28 58 -33
100 -22 190 2 18 72 85 88 85 4 0 29 -19 58 -42 31 -25 47 -44 40 -49 -16 -9
5 -21 25 -13 12 4 15 2 11 -9 -4 -8 1 -17 10 -21 9 -3 13 -2 10 4 -3 6 1 7 9
4 9 -3 16 -10 16 -15 0 -5 5 -9 12 -9 6 0 25 -10 42 -22 17 -13 49 -32 71 -43
22 -10 51 -27 65 -36 14 -9 54 -29 90 -44 36 -15 97 -42 135 -60 39 -18 109
-45 158 -60 51 -16 87 -33 87 -40 0 -8 3 -20 6 -29 4 -11 -2 -19 -19 -25 -13
-5 -58 -25 -98 -44 -115 -54 -211 -97 -218 -97 -4 0 -12 14 -18 30 -14 36 -35
38 -150 14 -94 -19 -145 -44 -161 -78 l-12 -26 141 0 c139 0 141 0 216 35 42
19 80 35 85 35 5 0 28 13 51 28 23 16 50 26 61 24 10 -2 16 0 13 6 -6 9 70 40
86 34 4 -1 7 3 7 8 0 6 5 10 11 10 7 0 9 -12 4 -36 -3 -20 -2 -34 2 -31 5 3
10 -2 11 -11 9 -75 16 -102 24 -102 7 0 8 19 4 53 -3 28 -9 79 -12 112 -5 55
-4 58 9 35 7 -14 19 -24 26 -22 7 1 22 -5 34 -14 15 -12 17 -15 5 -11 -25 9
-23 -9 3 -26 12 -9 16 -16 9 -19 -8 -2 -5 -12 9 -28 11 -14 30 -37 42 -52 l20
-28 662 0 662 0 -54 38 c-30 20 -84 62 -120 92 -36 31 -79 65 -94 77 l-28 22
68 35 c82 41 170 119 243 215 29 39 55 69 57 67 2 -2 8 -106 13 -232 6 -126
13 -248 16 -271 l5 -43 189 0 188 0 -4 63 c-12 156 -27 278 -45 366 -27 126
-30 153 -19 146 17 -10 47 13 84 65 39 55 51 61 61 30 3 -11 10 -20 15 -20 5
0 2 14 -7 31 -14 28 -14 32 0 47 13 13 36 15 122 13 l105 -3 0 1916 0 1916
-2005 0 -2005 0 0 -1915z m1789 -105 c6 -30 13 -66 17 -80 4 -20 3 -22 -5 -10
-16 22 -13 3 5 -31 8 -17 17 -45 19 -63 5 -36 44 -153 77 -228 23 -52 14 -48
182 -68 50 -6 148 -13 219 -15 71 -3 132 -7 135 -10 3 -3 -2 -5 -11 -5 -9 0
-36 -21 -59 -46 -55 -60 -63 -73 -48 -87 8 -9 14 -8 21 5 9 16 58 43 125 68
23 9 25 8 19 -7 -4 -10 -11 -54 -17 -98 -17 -142 13 -311 56 -319 48 -10 344
-36 381 -35 29 2 33 3 13 6 l-27 4 25 36 c38 56 55 128 61 256 4 86 9 117 19
117 18 0 124 -130 125 -155 4 -74 -27 -145 -89 -204 -43 -40 -45 -43 -19 -37
32 8 36 -4 7 -22 -12 -7 -18 -17 -15 -22 3 -5 1 -37 -5 -72 -6 -35 -15 -90
-20 -123 -5 -33 -14 -61 -20 -63 -5 -2 -10 -15 -10 -30 0 -61 -75 -243 -167
-402 -11 -19 -31 -53 -44 -76 -29 -50 -66 -99 -98 -130 -13 -13 -21 -30 -18
-38 4 -10 1 -13 -9 -9 -7 3 -14 0 -14 -6 0 -12 -102 -115 -137 -138 -13 -9
-23 -22 -23 -30 0 -8 -5 -11 -11 -8 -5 4 -27 -4 -47 -17 -20 -13 -49 -29 -64
-35 -48 -21 -269 -46 -423 -47 -139 -1 -157 1 -238 27 -151 49 -448 192 -572
275 -195 133 -286 230 -320 342 -54 180 -75 288 -75 385 0 94 20 246 31 240 4
-3 20 -58 35 -123 33 -142 75 -267 117 -340 35 -62 121 -159 164 -184 28 -16
26 -12 -34 110 -84 171 -94 225 -100 497 l-5 220 42 -43 c23 -24 45 -40 48
-37 4 4 -1 11 -11 16 -9 6 -29 33 -43 61 -24 46 -25 58 -19 123 10 106 20 143
46 165 25 20 102 60 118 60 5 0 2 -21 -6 -47 -28 -92 0 -322 47 -378 8 -9 7
-15 -2 -18 -18 -8 293 -8 329 -1 27 5 32 13 52 74 19 58 22 86 19 178 l-3 109
22 -10 c12 -5 28 -23 36 -39 12 -24 15 -27 21 -12 3 9 0 26 -8 38 -20 29 -98
108 -122 123 -15 10 6 12 109 12 89 1 127 4 127 13 0 6 8 3 20 -7 11 -10 17
-22 14 -26 -3 -5 -1 -9 4 -9 14 0 23 28 12 35 -19 12 -5 418 16 488 8 25 11
20 23 -43z m674 -123 c-3 -5 -1 -12 4 -16 13 -8 24 -69 14 -76 -5 -2 -12 7
-17 23 l-7 27 -7 -30 c-3 -16 -6 15 -6 69 -1 97 -1 99 12 56 7 -24 10 -48 7
-53z m-1442 -90 c-13 -13 -14 5 -3 43 l7 25 3 -29 c2 -16 -1 -33 -7 -39z m93
-89 c-3 -10 -1 -18 4 -18 5 0 12 -11 14 -25 4 -16 1 -25 -8 -25 -14 0 -21 37
-22 105 0 39 0 39 9 10 5 -16 6 -38 3 -47z m1417 -8 c16 -41 35 -88 43 -104
18 -37 13 -46 -25 -46 -16 0 -40 -7 -53 -15 -28 -19 -28 -19 -46 110 -13 89
-12 105 9 121 28 22 43 7 72 -66z m-1491 54 c0 -8 -4 -13 -9 -10 -5 4 -7 -3
-4 -14 3 -12 8 -18 11 -15 8 8 32 -76 26 -87 -3 -4 -11 -8 -17 -8 -7 0 -29 -9
-50 -20 l-39 -21 6 21 c3 11 9 29 12 40 3 11 10 18 15 15 5 -4 9 -1 9 4 0 6
-4 11 -10 11 -10 0 -3 54 12 83 11 21 38 23 38 1z m657 -136 c-3 -8 -6 -5 -6
6 -1 11 2 17 5 13 3 -3 4 -12 1 -19z m1428 -219 c11 -17 -1 -21 -15 -4 -8 9
-8 15 -2 15 6 0 14 -5 17 -11z m511 -168 c49 -30 67 -96 62 -234 -3 -101 -6
-119 -36 -181 -28 -61 -133 -206 -148 -206 -11 0 9 66 28 92 90 128 137 382
79 429 -11 9 -21 22 -21 28 0 6 -7 11 -15 11 -10 0 -15 10 -15 33 0 53 15 59
66 28z m-488 -89 c6 -18 -15 -14 -22 4 -4 10 -1 14 6 12 6 -2 14 -10 16 -16z
m440 -27 c-3 -3 -9 2 -12 12 -6 14 -5 15 5 6 7 -7 10 -15 7 -18z m32 -40 c0
-19 5 -35 11 -35 7 0 8 -4 2 -12 -5 -7 -8 -30 -7 -52 2 -64 -13 -16 -20 62 -4
46 -3 72 4 72 5 0 10 -16 10 -35z m-501 -23 c7 -21 11 -51 8 -67 -3 -25 -4
-24 -6 10 -2 51 -16 77 -30 55 -6 -8 -13 -12 -16 -8 -7 6 16 48 26 48 3 0 11
-17 18 -38z m18 6 c-3 -7 -5 -2 -5 12 0 14 2 19 5 13 2 -7 2 -19 0 -25z m453
7 c0 -14 -4 -25 -10 -25 -5 0 -10 11 -10 25 0 14 5 25 10 25 6 0 10 -11 10
-25z m-3 -57 c-3 -8 -6 -5 -6 6 -1 11 2 17 5 13 3 -3 4 -12 1 -19z m-550 -88
c0 -28 -3 -50 -8 -50 -5 0 -9 23 -9 50 0 65 15 65 17 0z m110 3 c-3 -10 -5 -4
-5 12 0 17 2 24 5 18 2 -7 2 -21 0 -30z m-20 -45 c-3 -8 -6 -5 -6 6 -1 11 2
17 5 13 3 -3 4 -12 1 -19z m456 -28 c-8 -29 -21 -25 -15 5 2 14 8 23 12 20 5
-3 6 -14 3 -25z m-456 -52 c-3 -8 -6 -5 -6 6 -1 11 2 17 5 13 3 -3 4 -12 1
-19z m0 -85 c-3 -10 -5 -4 -5 12 0 17 2 24 5 18 2 -7 2 -21 0 -30z m-53 -34
c-3 -5 -10 -7 -15 -3 -5 3 -7 10 -3 15 3 5 10 7 15 3 5 -3 7 -10 3 -15z
m-2594 -11 c0 -30 51 -339 66 -396 8 -35 14 -65 12 -66 -2 -2 -21 -16 -42 -32
l-39 -29 -64 70 c-34 38 -63 77 -63 87 0 17 56 78 98 105 12 9 22 20 22 27 0
6 -20 34 -45 61 -66 74 -67 88 -9 140 52 47 64 53 64 33z m2570 -18 c0 -5 -5
-10 -11 -10 -5 0 -7 5 -4 10 3 6 8 10 11 10 2 0 4 -4 4 -10z m44 -12 c-5 -13
-7 -39 -6 -58 1 -29 0 -32 -9 -17 -12 21 -2 97 13 97 5 0 6 -9 2 -22z m495
-37 c12 -11 44 -34 71 -53 33 -22 50 -40 50 -54 0 -12 -20 -49 -44 -82 -50
-67 -50 -68 19 -118 71 -51 87 -80 62 -106 -7 -7 -32 -39 -55 -70 -48 -66 -53
-66 -140 -4 -27 20 -54 36 -60 36 -6 0 -23 -17 -38 -37 -42 -58 -76 -93 -90
-93 -6 0 -21 8 -33 17 l-22 18 46 90 c60 117 111 261 139 395 5 25 50 80 65
80 4 0 18 -9 30 -19z m-521 -86 c-3 -3 -9 2 -12 12 -6 14 -5 15 5 6 7 -7 10
-15 7 -18z m-2368 -35 c-5 -22 -8 -27 -9 -13 -1 21 9 56 14 51 2 -2 0 -19 -5
-38z m18 -79 c-14 -23 -2 -43 13 -21 8 12 9 10 4 -7 -3 -12 -1 -24 5 -28 5 -3
10 -13 10 -21 0 -17 -20 -19 -20 -1 0 6 -9 23 -20 37 -11 14 -19 39 -19 55 0
26 2 27 9 10 8 -18 9 -18 10 5 0 22 2 23 11 8 7 -12 6 -23 -3 -37z m2383 -82
c-10 -23 -10 -22 -8 8 0 18 5 29 9 25 5 -5 4 -19 -1 -33z m-2804 -11 c-3 -7
-5 -2 -5 12 0 14 2 19 5 13 2 -7 2 -19 0 -25z m3428 23 c8 -14 -10 -22 -30
-15 -13 5 -14 8 -3 15 17 11 26 11 33 0z m-3458 -53 c-2 -13 -4 -5 -4 17 -1
22 1 32 4 23 2 -10 2 -28 0 -40z m2700 30 c-3 -8 -6 -5 -6 6 -1 11 2 17 5 13
3 -3 4 -12 1 -19z m-2237 -18 c0 -5 -4 -10 -10 -10 -5 0 -10 5 -10 10 0 6 5
10 10 10 6 0 10 -4 10 -10z m50 0 c0 -5 -4 -10 -10 -10 -5 0 -10 5 -10 10 0 6
5 10 10 10 6 0 10 -4 10 -10z m3000 -20 c6 -11 7 -20 3 -20 -5 0 -14 9 -21 20
-7 11 -8 20 -2 20 5 0 14 -9 20 -20z m-3020 -14 c0 -8 -4 -18 -10 -21 -5 -3
-10 -4 -10 -1 0 2 -3 11 -6 20 -4 11 -1 16 10 16 9 0 16 -6 16 -14z m37 -16
c3 -11 12 -20 19 -20 8 0 14 -5 14 -11 0 -5 -5 -7 -11 -3 -6 3 -16 0 -21 -7
-7 -11 -8 -9 -4 5 5 13 2 17 -9 12 -11 -4 -15 1 -15 19 0 30 20 33 27 5z
m3023 6 c0 -2 -7 -7 -16 -10 -8 -3 -12 -2 -9 4 6 10 25 14 25 6z m-3460 -16
c0 -5 -5 -10 -11 -10 -5 0 -7 5 -4 10 3 6 8 10 11 10 2 0 4 -4 4 -10z m380
-47 c0 5 5 5 11 1 8 -4 7 -9 -2 -15 -22 -14 -29 -11 -29 14 0 18 2 19 10 7 5
-8 10 -11 10 -7z m45 -23 c-10 -11 -23 -20 -29 -20 -6 1 0 10 13 20 30 26 39
26 16 0z m2249 -81 c-2 -5 -11 -6 -19 -2 -11 4 -13 1 -9 -12 6 -16 5 -16 -14
1 -12 10 -22 19 -22 19 0 0 16 0 34 1 19 0 33 -3 30 -7z m58 -39 c-1 -13 -10
-29 -20 -37 -15 -12 -15 -12 0 -7 14 5 12 -6 -12 -63 -16 -38 -40 -89 -54
-113 -24 -43 -89 -120 -102 -120 -3 0 -33 20 -66 45 -32 24 -75 47 -94 51 -19
3 -36 10 -39 14 -8 13 6 40 21 40 28 0 207 99 276 153 21 16 42 26 47 22 7 -4
8 1 4 11 -5 13 -3 16 10 11 12 -4 14 -2 10 10 -4 11 -2 14 8 11 8 -3 13 -15
11 -28z m-231 -53 c-10 -9 -11 -8 -5 6 3 10 9 15 12 12 3 -3 0 -11 -7 -18z
m19 -22 c-7 -9 -15 -13 -19 -10 -3 3 1 10 9 15 21 14 24 12 10 -5z m-163 -81
c-3 -3 -12 -4 -19 -1 -8 3 -5 6 6 6 11 1 17 -2 13 -5z m-300 -80 c-3 -3 -12
-4 -19 -1 -8 3 -5 6 6 6 11 1 17 -2 13 -5z m328 -186 c26 -40 35 -63 35 -95 0
-56 -12 -60 -42 -15 -18 26 -27 56 -30 100 -2 34 -3 62 -1 62 1 0 18 -24 38
-52z m-848 -44 c-3 -3 -12 -4 -19 -1 -8 3 -5 6 6 6 11 1 17 -2 13 -5z"/>
<path d="M2091 2295 c0 -24 37 -136 38 -115 0 8 -8 42 -19 75 -10 33 -19 51
-19 40z"/>
<path d="M2233 2063 c9 -2 25 -2 35 0 9 3 1 5 -18 5 -19 0 -27 -2 -17 -5z"/>
<path d="M2338 2043 c12 -2 30 -2 40 0 9 3 -1 5 -23 4 -22 0 -30 -2 -17 -4z"/>
<path d="M2453 2043 c15 -2 37 -2 50 0 12 2 0 4 -28 4 -27 0 -38 -2 -22 -4z"/>
<path d="M2248 2033 c7 -3 16 -2 19 1 4 3 -2 6 -13 5 -11 0 -14 -3 -6 -6z"/>
<path d="M2144 733 c4 -4 19 -9 34 -10 21 -3 24 -1 12 7 -17 11 -57 14 -46 3z"/>
<path d="M2750 2289 c0 -5 5 -7 10 -4 6 3 10 8 10 11 0 2 -4 4 -10 4 -5 0 -10
-5 -10 -11z"/>
<path d="M2732 2250 c0 -19 2 -27 5 -17 2 9 2 25 0 35 -3 9 -5 1 -5 -18z"/>
<path d="M2751 2214 c0 -11 3 -14 6 -6 3 7 2 16 -1 19 -3 4 -6 -2 -5 -13z"/>
<path d="M2731 2174 c0 -11 3 -14 6 -6 3 7 2 16 -1 19 -3 4 -6 -2 -5 -13z"/>
<path d="M2762 2165 c0 -16 2 -22 5 -12 2 9 2 23 0 30 -3 6 -5 -1 -5 -18z"/>
<path d="M2795 2180 c3 -5 8 -10 11 -10 2 0 4 5 4 10 0 6 -5 10 -11 10 -5 0
-7 -4 -4 -10z"/>
<path d="M2741 2123 c-1 -12 4 -25 9 -28 12 -7 12 2 0 30 -8 19 -9 19 -9 -2z"/>
<path d="M1307 2193 c-4 -3 -7 -11 -7 -17 0 -6 5 -5 12 2 6 6 9 14 7 17 -3 3
-9 2 -12 -2z"/>
<path d="M4065 719 c-11 -17 1 -21 15 -4 8 9 8 15 2 15 -6 0 -14 -5 -17 -11z"/>
<path d="M1086 661 c-5 -8 -3 -17 5 -22 17 -11 39 -12 23 -1 -6 4 -13 14 -16
22 -3 11 -6 11 -12 1z"/>
<path d="M1142 663 c-10 -4 -10 -8 -1 -19 6 -8 17 -14 23 -14 6 0 4 4 -4 10
-8 5 -11 12 -7 16 4 4 15 0 25 -9 10 -10 23 -17 28 -17 5 1 -2 10 -15 20 -24
21 -28 22 -49 13z"/>
<path d="M4010 650 c0 -5 5 -10 10 -10 6 0 10 5 10 10 0 6 -4 10 -10 10 -5 0
-10 -4 -10 -10z"/>
<path d="M750 640 c20 -13 33 -13 25 0 -3 6 -14 10 -23 10 -15 0 -15 -2 -2
-10z"/>
<path d="M800 626 c0 -22 3 -27 11 -19 8 8 8 16 0 30 -9 16 -10 14 -11 -11z"/>
<path d="M1395 490 c3 -5 8 -10 11 -10 2 0 4 5 4 10 0 6 -5 10 -11 10 -5 0 -7
-4 -4 -10z"/>
<path d="M1967 83 c-2 -4 -7 -21 -10 -38 -6 -30 -6 -30 9 4 8 18 13 35 11 38
-3 2 -7 1 -10 -4z"/>
<path d="M2046 32 c-3 -6 -1 -14 5 -17 15 -10 25 3 12 16 -7 7 -13 7 -17 1z"/>
</g>
</svg>
